<svg xmlns="http://www.w3.org/2000/svg" xmlns:xlink="http://www.w3.org/1999/xlink" width="858.898" height="612.283" viewBox="0 0 858.898 612.283">
  <defs>
    <clipPath id="clip-path">
      <rect id="長方形_109" data-name="長方形 109" width="858.898" height="612.283" transform="translate(253.551 77.858)" fill="none"/>
    </clipPath>
    <clipPath id="clip-path-3">
      <rect id="長方形_104" data-name="長方形 104" width="80.221" height="24.939" transform="translate(610.767 416.678)" fill="none"/>
    </clipPath>
    <clipPath id="clip-path-4">
      <rect id="長方形_105" data-name="長方形 105" width="81.141" height="25.015" transform="translate(701.291 416.641)" fill="none"/>
    </clipPath>
    <clipPath id="clip-path-5">
      <rect id="長方形_106" data-name="長方形 106" width="97.279" height="25.972" transform="translate(786.693 417.939)" fill="none"/>
    </clipPath>
    <clipPath id="clip-path-6">
      <rect id="長方形_107" data-name="長方形 107" width="57.818" height="16.702" transform="translate(880.98 426.253)" fill="none"/>
    </clipPath>
  </defs>
  <g id="グループ_157" data-name="グループ 157" transform="translate(-253.551 -77.858)" clip-path="url(#clip-path)">
    <g id="グループ_156" data-name="グループ 156">
      <g id="グループ_155" data-name="グループ 155" clip-path="url(#clip-path)">
        <path id="パス_121" data-name="パス 121" d="M643.029,276.109c-.458,0-.91-.035-1.369-.035-63.921,0-118.05,42.547-136.391,101.259-.15.48-.279.969-.424,1.451,74.489-1.591,134.669-46.494,138.184-102.675" fill="#d2694a"/>
        <path id="パス_122" data-name="パス 122" d="M417.8,319.976a94.7,94.7,0,0,0-17.141,1.582,123.322,123.322,0,0,0,104.191,57.226,93.563,93.563,0,0,0-87.05-58.808" fill="#78895e"/>
        <path id="パス_123" data-name="パス 123" d="M504.845,378.784a147.074,147.074,0,0,0-5.758,40.762,87.571,87.571,0,0,0,4.9,26.959,92.23,92.23,0,0,0,.861-67.721" fill="#baa485"/>
        <path id="パス_124" data-name="パス 124" d="M690.771,416.679c.244,0,.244,0,.183.037-.687.423-6.44,1.112-12.6,1.457a9.465,9.465,0,0,0-3.753.958c-1.866,1.071-8.471,5.056-12.711,7.661-4.363,2.682-16.005,9.386-20.429,12.105-1.31.8.321,1.226,11.776,1.226,12.31,0,19.582-.575,30.218-4.864a3.2,3.2,0,0,1,.8-.192s.792.038-.392.765c-2.619,1.61-10.067,3.716-12.283,4.253a42.547,42.547,0,0,1-11.322,1.341c-4.386,0-25.461-.23-30.336-.23-8.288,0-14.814.191-18.173.383-.244,0-.55.038-.794.038a.373.373,0,0,1-.183-.038c1-.613,9.611-1.188,13.217-1.456a13.548,13.548,0,0,0,4.116-.957c3.09-1.149,12.676-6.667,18.41-10.19,8.1-4.981,14.468-9.041,15.119-10.191.131-.229.137-.382-1.138-.5-1.338-.077-5.842-.229-7.967-.421-.671-.038-.788-.115-.725-.154.248-.152,7.221-.842,7.83-.842h.121c2.494.116,9.131.23,13.641.23,8.9,0,12.8-.153,17.138-.421Z" fill="#d2694a"/>
        <g id="グループ_145" data-name="グループ 145" opacity="0.3">
          <g id="グループ_144" data-name="グループ 144">
            <g id="グループ_143" data-name="グループ 143" clip-path="url(#clip-path-3)">
              <path id="パス_125" data-name="パス 125" d="M690.771,416.679c.244,0,.244,0,.183.037-.687.423-6.44,1.112-12.6,1.457a9.465,9.465,0,0,0-3.753.958c-1.866,1.071-8.471,5.056-12.711,7.661-4.363,2.682-16.005,9.386-20.429,12.105-1.31.8.321,1.226,11.776,1.226,12.31,0,19.582-.575,30.218-4.864a3.2,3.2,0,0,1,.8-.192s.792.038-.392.765c-2.619,1.61-10.067,3.716-12.283,4.253a42.547,42.547,0,0,1-11.322,1.341c-4.386,0-25.461-.23-30.336-.23-8.288,0-14.814.191-18.173.383-.244,0-.55.038-.794.038a.373.373,0,0,1-.183-.038c1-.613,9.611-1.188,13.217-1.456a13.548,13.548,0,0,0,4.116-.957c3.09-1.149,12.676-6.667,18.41-10.19,8.1-4.981,14.468-9.041,15.119-10.191.131-.229.137-.382-1.138-.5-1.338-.077-5.842-.229-7.967-.421-.671-.038-.788-.115-.725-.154.248-.152,7.221-.842,7.83-.842h.121c2.494.116,9.131.23,13.641.23,8.9,0,12.8-.153,17.138-.421Z" fill="#fff"/>
            </g>
          </g>
        </g>
        <path id="パス_126" data-name="パス 126" d="M701.49,441.656c-.124,0-.245,0-.184-.037a.874.874,0,0,1,.246-.077c2.769-.729,3.748-.8,13.4-1.571a11.135,11.135,0,0,0,4.549-1.073c1.855-.765,7.515-3.869,17.051-9.73,9.974-6.129,14.283-8.926,15.3-10.075.384-.459.026-.614-1.191-.69-2.557-.077-9.433-.345-8.934-.651.248-.153,7.289-1.034,8.142-1.034h.121c2.8.153,9.067.344,12.724.344,7.189,0,13.656-.153,19.209-.421h.244c.244,0,.3.037.241.077a2.022,2.022,0,0,1-.429.115c-2.957.842-6.8,1.034-11.87,1.3a10.641,10.641,0,0,0-3.995.881c-2.778,1.035-7.389,3.792-15.057,8.5-12.841,7.892-16.024,10-17.286,11.149-.883.841-.706.958.572.995,2.621.115,9.735.461,9.362.689-.189.116-6.438,1.035-7.412,1.035-1.216-.077-2.859-.115-4.87-.153-2.251-.039-4.872-.077-8.649-.077-9.508,0-17.379.345-20.8.5Z" fill="#d2694a"/>
        <g id="グループ_148" data-name="グループ 148" opacity="0.3">
          <g id="グループ_147" data-name="グループ 147">
            <g id="グループ_146" data-name="グループ 146" clip-path="url(#clip-path-4)">
              <path id="パス_127" data-name="パス 127" d="M701.49,441.656c-.124,0-.245,0-.184-.037a.874.874,0,0,1,.246-.077c2.769-.729,3.748-.8,13.4-1.571a11.135,11.135,0,0,0,4.549-1.073c1.855-.765,7.515-3.869,17.051-9.73,9.974-6.129,14.283-8.926,15.3-10.075.384-.459.026-.614-1.191-.69-2.557-.077-9.433-.345-8.934-.651.248-.153,7.289-1.034,8.142-1.034h.121c2.8.153,9.067.344,12.724.344,7.189,0,13.656-.153,19.209-.421h.244c.244,0,.3.037.241.077a2.022,2.022,0,0,1-.429.115c-2.957.842-6.8,1.034-11.87,1.3a10.641,10.641,0,0,0-3.995.881c-2.778,1.035-7.389,3.792-15.057,8.5-12.841,7.892-16.024,10-17.286,11.149-.883.841-.706.958.572.995,2.621.115,9.735.461,9.362.689-.189.116-6.438,1.035-7.412,1.035-1.216-.077-2.859-.115-4.87-.153-2.251-.039-4.872-.077-8.649-.077-9.508,0-17.379.345-20.8.5Z" fill="#fff"/>
            </g>
          </g>
        </g>
        <path id="パス_128" data-name="パス 128" d="M883.488,420.62a7.677,7.677,0,0,1-1.484.612,53.111,53.111,0,0,0-6.791,2.375,14.511,14.511,0,0,1-4.617,1.265c-.244,0-.178-.115.072-.269,2.814-1.954,3.507-2.605,1.652-3.562-1.133-.651-4.571-1.608-16.028-1.608-23.522,0-39.775,6.244-46.694,10.5-14.772,9.079-2.041,12.488,14.9,12.488a82.267,82.267,0,0,0,15.459-1.188,131.829,131.829,0,0,0,15.8-3.946,3.253,3.253,0,0,1,1.167-.267c.61,0,.23.382-.207.651a73.141,73.141,0,0,1-11.779,3.868c-5.656,1.38-22.512,2.376-31.652,2.376-22.668,0-34.433-3.256-20.781-11.645,17.455-10.727,59.875-14.328,74.866-14.328,9.871,0,18.793,1.035,16.111,2.682" fill="#d2694a"/>
        <g id="グループ_151" data-name="グループ 151" opacity="0.3">
          <g id="グループ_150" data-name="グループ 150">
            <g id="グループ_149" data-name="グループ 149" clip-path="url(#clip-path-5)">
              <path id="パス_129" data-name="パス 129" d="M883.488,420.62a7.677,7.677,0,0,1-1.484.612,53.111,53.111,0,0,0-6.791,2.375,14.511,14.511,0,0,1-4.617,1.265c-.244,0-.178-.115.072-.269,2.814-1.954,3.507-2.605,1.652-3.562-1.133-.651-4.571-1.608-16.028-1.608-23.522,0-39.775,6.244-46.694,10.5-14.772,9.079-2.041,12.488,14.9,12.488a82.267,82.267,0,0,0,15.459-1.188,131.829,131.829,0,0,0,15.8-3.946,3.253,3.253,0,0,1,1.167-.267c.61,0,.23.382-.207.651a73.141,73.141,0,0,1-11.779,3.868c-5.656,1.38-22.512,2.376-31.652,2.376-22.668,0-34.433-3.256-20.781-11.645,17.455-10.727,59.875-14.328,74.866-14.328,9.871,0,18.793,1.035,16.111,2.682" fill="#fff"/>
            </g>
          </g>
        </g>
        <path id="パス_130" data-name="パス 130" d="M929.377,429.853c.748-.46,1.317-1.034.9-1.3-.893-.575-2.77-.92-6.061-.92-6.336,0-11.443,1.341-13.5,2.6-1.682,1.034-.974,1.647,1.994,2.145,1.936.383,5.158.576,8.437.957,6.555.615,8.229,1.534,5.862,2.989-3.43,2.107-11.161,3.563-18.885,4.789a124.156,124.156,0,0,1-19.687,1.839c-5.364,0-8.815-.576-6.945-1.725a4.48,4.48,0,0,1,1.482-.535,63.834,63.834,0,0,0,7.276-2.3,2.378,2.378,0,0,1,.918-.191c.609,0-.013.381-.948.957-1.371.842-.749,2.184,8.512,2.184,6.948,0,11.857-.921,14.412-2.49,2.744-1.687-1.2-2.031-11.107-2.911-4.854-.537-7.264-1.3-4.023-3.3,3.741-2.3,10.859-3.678,18.092-4.827a107.419,107.419,0,0,1,17.058-1.571c4.875,0,6.441.536,5.256,1.264a4.217,4.217,0,0,1-.989.384,44.635,44.635,0,0,0-5.3,1.684,11.307,11.307,0,0,1-3.755,1.035c-.244,0-.242-.077-.054-.192Z" fill="#d2694a"/>
        <g id="グループ_154" data-name="グループ 154" opacity="0.3">
          <g id="グループ_153" data-name="グループ 153">
            <g id="グループ_152" data-name="グループ 152" clip-path="url(#clip-path-6)">
              <path id="パス_131" data-name="パス 131" d="M929.377,429.853c.748-.46,1.317-1.034.9-1.3-.893-.575-2.77-.92-6.061-.92-6.336,0-11.443,1.341-13.5,2.6-1.682,1.034-.974,1.647,1.994,2.145,1.936.383,5.158.576,8.437.957,6.555.615,8.229,1.534,5.862,2.989-3.43,2.107-11.161,3.563-18.885,4.789a124.156,124.156,0,0,1-19.687,1.839c-5.364,0-8.815-.576-6.945-1.725a4.48,4.48,0,0,1,1.482-.535,63.834,63.834,0,0,0,7.276-2.3,2.378,2.378,0,0,1,.918-.191c.609,0-.013.381-.948.957-1.371.842-.749,2.184,8.512,2.184,6.948,0,11.857-.921,14.412-2.49,2.744-1.687-1.2-2.031-11.107-2.911-4.854-.537-7.264-1.3-4.023-3.3,3.741-2.3,10.859-3.678,18.092-4.827a107.419,107.419,0,0,1,17.058-1.571c4.875,0,6.441.536,5.256,1.264a4.217,4.217,0,0,1-.989.384,44.635,44.635,0,0,0-5.3,1.684,11.307,11.307,0,0,1-3.755,1.035c-.244,0-.242-.077-.054-.192Z" fill="#fff"/>
            </g>
          </g>
        </g>
        <path id="パス_132" data-name="パス 132" d="M650.253,363.372c.244,0,.244,0,.244.122,0,1.341-4.631,3.534-10.238,4.631-1.462.244-1.828,1.341-2.193,3.047-.122,3.412-.244,16.087-.244,24.374,0,8.532-.731,29.86-.731,38.512,0,2.56,2.315,3.9,13.771,3.9,12.309,0,18.647-1.828,22.3-15.478.122-.365.365-.608.487-.608,0,0,.853.121.853,2.436,0,5.119-4.022,11.822-5.362,13.528-2.925,3.535-5.119,4.266-9.14,4.266-4.388,0-25.837-.731-30.712-.731a101.314,101.314,0,0,0-17.55,1.218c-.243,0-.487.122-.731.122a.422.422,0,0,1-.243-.122c0-1.95,7.677-3.778,10.846-4.631,1.219-.366,1.95-1.1,2.559-3.046C625.391,431.255,626,413.7,626,402.494c0-15.844-.244-28.763-1.463-32.419-.244-.731-.488-1.219-1.95-1.585-1.462-.243-6.215-.73-8.653-1.34-.731-.122-.975-.366-.975-.487,0-.488,5.85-2.682,6.46-2.682h.121c2.681.366,9.506.732,14.016.732,8.9,0,12.552-.487,16.452-1.341Z" fill="#231815"/>
        <path id="パス_133" data-name="パス 133" d="M701.56,442.955c-.121,0-.243,0-.243-.121a.378.378,0,0,1,.122-.244c1.584-2.316,2.437-2.56,10.847-5,1.949-.488,2.315-1.219,2.8-3.412.61-2.438,1.219-12.309,1.219-30.956,0-19.5-.244-28.4-1.1-32.053a2.469,2.469,0,0,0-2.315-2.193c-2.682-.244-9.994-1.1-9.994-2.072,0-.488,5.606-3.29,6.459-3.29h.122a110.6,110.6,0,0,0,13.284,1.1,114.258,114.258,0,0,0,18.524-1.341h.245c.243,0,.365.123.365.245s-.122.243-.243.365c-1.585,2.681-5.119,3.29-9.75,4.143-1.585.366-2.2,1.1-2.56,2.8-1.1,3.291-1.219,12.066-1.219,27.056,0,25.106.244,31.809.854,35.465.487,2.682.852,3.047,2.193,3.169,2.8.365,10.482,1.462,10.482,2.193,0,.367-4.754,3.291-5.729,3.291a45.524,45.524,0,0,0-5.118-.487c-2.315-.122-5-.244-8.775-.244a128.581,128.581,0,0,0-19.987,1.584Z" fill="#231815"/>
        <path id="パス_134" data-name="パス 134" d="M846.344,370.2a4.979,4.979,0,0,1-.487,1.949c-1.463,2.926-2.438,4.632-2.925,7.557-.244,1.219-1.1,4.021-2.56,4.021-.244,0-.365-.365-.365-.853-.366-6.215-.731-8.287-4.144-11.334-2.194-2.071-7.191-5.118-18.646-5.118-23.521,0-29.615,19.865-29.615,33.393,0,28.884,18.28,39.73,35.221,39.73,7.921,0,10.846-1.828,13.528-3.778a37.178,37.178,0,0,0,9.384-12.553c.244-.487.244-.852.731-.852.609,0,.853,1.218.853,2.071,0,1.95-2.925,9.506-5.485,12.309-3.412,4.387-18.645,7.556-27.786,7.556-22.668,0-39.73-10.359-39.73-37.049,0-34.124,36.561-45.58,51.551-45.58,9.872,0,20.475,3.29,20.475,8.531" fill="#231815"/>
        <path id="パス_135" data-name="パス 135" d="M908.255,401.518a6.448,6.448,0,0,0-1.219-4.144,10.18,10.18,0,0,0-7.556-2.924c-6.337,0-9.262,4.265-9.262,8.287,0,3.291,1.706,5.241,5.484,6.825,2.559,1.219,6.093,1.828,9.993,3.047,7.556,1.95,10.725,4.875,10.725,9.506,0,6.7-5.362,11.334-11.09,15.234-5.119,3.534-10.359,5.85-16.7,5.85-5.362,0-9.749-1.828-9.749-5.485a2.279,2.279,0,0,1,.609-1.706,24.049,24.049,0,0,0,3.534-7.312c.123-.366.244-.61.61-.61.609,0,.609,1.219.609,3.047,0,2.682,2.8,6.947,12.066,6.947,6.946,0,10.358-2.925,10.358-7.921,0-5.363-4.509-6.46-15.843-9.263-5.728-1.706-9.384-4.144-9.384-10.481,0-7.312,4.875-11.7,10.237-15.356a24.79,24.79,0,0,1,14.5-5c4.875,0,7.312,1.706,7.312,4.021a2.359,2.359,0,0,1-.365,1.219c-1.463,2.56-2.072,3.29-2.56,5.362-.366,1.707-1.1,3.291-2.072,3.291-.243,0-.365-.244-.365-.61Z" fill="#231815"/>
      </g>
    </g>
  </g>
</svg>
